# Blender v3.2.2 OBJ File: 'Rock1.blend'
# www.blender.org
mtllib Rock1.mtl
o Rock_Sphere
v 0.695126 1.763700 0.716939
v 0.329945 0.890527 -0.796557
v 0.332821 0.915179 -0.803501
v 0.297697 0.896597 -0.808264
v -0.492350 1.403584 0.840040
v 0.680867 2.803546 0.361481
v -0.564979 2.803546 0.361481
v -0.213490 2.260203 -0.862851
v -0.701918 2.474534 -0.379894
v -0.837938 2.069269 -0.473635
v -0.332071 2.037698 -0.880366
v 0.485041 2.300926 -0.771090
v 0.726437 2.532896 -0.248384
v -0.630016 2.595622 0.432557
v -0.842309 2.055371 -0.469481
v -0.660985 0.565706 -0.297263
v -0.558240 0.346155 0.076365
v -0.896773 1.196493 -0.272558
v -0.500125 1.411321 0.837395
v -0.499225 1.395883 0.834862
v -0.659110 1.932595 0.659204
v -0.851427 1.120014 0.034229
v -0.657295 0.641348 0.296595
v 0.699533 1.763700 0.713322
v 0.701779 1.783959 0.710014
v 0.735267 0.669401 0.233468
v 0.766654 2.206871 0.565447
v 0.870680 1.540365 -0.071835
v 0.346532 0.884470 -0.785607
v 0.345759 0.929971 -0.801675
v 0.526337 1.587093 -0.772125
v 0.857379 1.082784 -0.154032
v -0.643695 0.613651 -0.376998
v -0.094649 0.916118 -0.859417
v -0.324979 1.914952 -0.880545
v -0.865124 1.782633 -0.438756
v -0.896763 1.260970 -0.310843
v -0.878411 1.143464 -0.301630
v -0.722585 0.723686 -0.338157
v 0.467742 0.391679 0.047899
v 0.718636 0.608167 0.190013
v 0.750343 0.659020 0.167107
v 0.840744 0.936366 -0.128415
v 0.478457 0.755700 -0.563113
v 0.671825 1.717530 0.732721
v -0.425308 1.407349 0.838753
v 0.675925 1.247475 0.656670
v 0.687962 1.593401 0.710500
vt 0.693800 0.334527
vt 0.687500 0.338359
vt 0.687500 0.333275
vt 0.511703 0.459347
vt 0.540485 0.646278
vt 0.418064 0.703012
vt 0.398964 0.582303
vt 0.465374 0.281734
vt 0.459850 0.269769
vt 0.430294 0.212025
vt 0.630903 0.302802
vt 0.523848 0.341775
vt 0.164294 0.432592
vt 0.165713 0.434056
vt 0.164374 0.435526
vt 0.373438 0.500000
vt 0.374067 0.503702
vt 0.372529 0.500000
vt 0.805210 0.550574
vt 0.899863 0.556272
vt 0.739814 0.634168
vt 0.785599 0.591866
vt 0.372413 0.468877
vt 0.368021 0.491562
vt 0.662130 0.599605
vt 0.110542 0.703012
vt 0.902074 0.553702
vt 0.108341 0.661022
vt 0.947208 0.406951
vt 0.915741 0.503683
vt 0.804341 0.527783
vt 0.767451 0.338553
vt 0.916067 0.271060
vt 0.930473 0.296948
vt 0.947467 0.384618
vt 0.932941 0.259779
vt 0.028311 0.198973
vt 0.064054 0.273459
vt 0.565020 0.379668
vt 0.953342 0.394697
vt 0.126506 0.533113
vt 0.452259 0.284176
vt 0.527988 0.370902
vt 0.655422 0.467285
vt 0.685306 0.341409
vt 0.683807 0.332026
vt 0.378157 0.403887
vt 0.177202 0.434752
vn 0.2778 -0.2904 -0.9157
vn 0.9893 0.1454 0.0094
vn 0.7176 -0.6038 -0.3471
vn -0.4646 -0.1697 0.8691
vn 0.6334 0.0558 0.7718
vn -0.5703 0.3620 -0.7374
vn 0.6334 -0.0558 0.7718
vn 0.0000 0.9140 -0.4056
vn -0.9500 0.3101 0.0379
vn -0.6023 -0.1555 -0.7830
vn -0.6276 -0.0351 -0.7778
vn -0.9348 -0.3514 0.0506
vn -0.8920 -0.1234 0.4349
vn 0.8674 -0.4223 0.2631
vn 0.8975 0.0526 -0.4378
vn 0.4511 -0.2904 -0.8439
vn -0.9431 -0.1697 -0.2861
vn -0.9802 0.1012 0.1701
vn 0.1297 0.0089 -0.9915
vn -0.7994 -0.4223 -0.4273
vn 0.7916 -0.1915 -0.5802
vn 0.0239 -0.8590 -0.5114
vn 0.9704 -0.0698 0.2314
vn 0.0485 -0.5868 0.8083
vn 0.1389 -0.1570 0.9778
vn -0.0000 0.3235 0.9462
usemtl None
s off
f 4/1/1 3/2/1 2/3/1
f 28/4/2 13/5/2 6/6/2 27/7/2
f 42/8/3 41/9/3 40/10/3 44/11/3 43/12/3
f 20/13/4 5/14/4 19/15/4
f 24/16/5 25/17/5 1/18/5
f 11/19/6 10/20/6 9/21/6 8/22/6
f 48/23/7 24/16/7 1/18/7 45/24/7
f 12/25/8 8/22/8 9/21/8 7/26/8 6/6/8 13/5/8
f 15/27/9 14/28/9 7/26/9 9/21/9 10/20/9
f 37/29/10 36/30/10 35/31/10 34/32/10 33/33/10 39/34/10 38/35/10
f 35/31/11 36/30/11 15/27/11 10/20/11 11/19/11
f 38/35/12 39/34/12 16/36/12 17/37/12 23/38/12 22/39/12 18/40/12
f 19/15/13 21/41/13 22/39/13 23/38/13 20/13/13
f 41/9/14 42/8/14 26/42/14
f 28/4/15 32/43/15 31/44/15 12/25/15 13/5/15
f 2/3/16 3/2/16 30/45/16 29/46/16
f 18/40/17 37/29/17 38/35/17
f 22/39/18 21/41/18 14/28/18 15/27/18 36/30/18 37/29/18 18/40/18
f 11/19/19 8/22/19 12/25/19 31/44/19 30/45/19 3/2/19 4/1/19 34/32/19 35/31/19
f 16/36/20 39/34/20 33/33/20
f 31/44/21 32/43/21 43/12/21 44/11/21 29/46/21 30/45/21
f 29/46/22 44/11/22 40/10/22 17/37/22 16/36/22 33/33/22 34/32/22 4/1/22 2/3/22
f 42/8/23 43/12/23 32/43/23 28/4/23 27/7/23 25/17/23 24/16/23 48/23/23 47/47/23 26/42/23
f 23/38/24 17/37/24 40/10/24 41/9/24 26/42/24 47/47/24 46/48/24 5/14/24 20/13/24
f 46/48/25 47/47/25 48/23/25 45/24/25
f 6/6/26 7/26/26 14/28/26 21/41/26 19/15/26 5/14/26 46/48/26 45/24/26 1/18/26 25/17/26 27/7/26
